<?xml version="1.0" encoding="UTF-8"?>
<!-- Created with Inkscape (http://www.inkscape.org/) -->
<svg width="1024" height="1024" version="1.1" viewBox="0 0 1024 1024" xmlns="http://www.w3.org/2000/svg" xmlns:xlink="http://www.w3.org/1999/xlink">
 <ellipse cx="512.62" cy="513.25" rx="511.36" ry="510.73" fill="#808080" stroke-opacity="0"/>
 <path d="m288.19 638.99c-6.8009-4.6286-7.456-6.4381-7.809-21.569-0.3773-16.171 1.9128-32.636 9.9076-71.232 5.5892-26.982 16.328-82.745 17.37-90.199 0.40799-2.9176 0.28199-4.75-0.32659-4.75-1.7545 0-14.402 14.814-22.472 26.321-8.9536 12.768-20.322 31.505-30.143 49.679-8.2754 15.315-33.335 66.086-37.02 75-3.9563 9.5727-10.315 20.759-12.784 22.488-4.7937 3.3577-15.55 0.53153-18.503-4.8615-1.3643-2.4918-1.6932-5.5607-1.6212-15.126 0.13592-18.049 4.7091-40.541 18.401-90.5 6.3641-23.221 7.8776-30.125 6.2485-28.5-0.55153 0.55-4.5108 5.275-8.7984 10.5-33.275 40.55-73.229 79.629-102.44 100.2-7.4499 5.2456-32.026 20.73-36.909 23.255-1.8023 0.932-3.47 1.5015-3.7059 1.2655s3.7434-3.9468 8.8429-8.2462c12.528-10.563 68.617-66.832 82.706-82.972 14.144-16.204 34.546-41.635 51.745-64.5 16.106-21.412 20.001-25.4 24.812-25.4 6.9058 0 12.662 7.1899 14.351 17.925 1.5366 9.7667-2.1784 32.679-8.7356 53.877-1.1743 3.7962-2.0161 7.0172-1.8706 7.1577s4.5248-6.7905 9.7319-15.402c17.901-29.605 43.994-66.894 52.724-75.344 5.8682-5.6804 14.532-9.8135 20.572-9.8135 8.2136 0 12.819 3.3609 17.439 12.727l3.7976 7.6989-0.11674 19.537c-0.13028 21.803-1.8274 37.538-6.3964 59.306-1.6428 7.8269-3.2828 15.314-3.6444 16.637-1.0831 3.964 0.93456 1.7666 6.5207-7.1017 36.58-58.074 40.214-63.331 48.182-69.725 7.7561-6.2241 14.468-7.4615 21.641-3.9895 16.21 7.8474 17.601 27.682 6.3135 90.039-4.0827 22.554-6.6557 43.563-5.4753 44.708 1.125 1.0906 12.413-11.737 21.061-23.934 12.823-18.085 24.934-39.659 33.908-60.402 9.2048-21.278 12.686-28.355 14.243-28.952 4.6465-1.783 15.292 5.102 18.372 11.881 2.9749 6.55 3.2971 4.3735-7.0431 47.571-6.7526 28.21-10.676 54-8.2142 54 3.9633 0 19.617-16.322 37.35-38.945 22.245-28.379 46.558-66.254 60.467-94.195 4.0683-8.1727 7.6648-14.859 7.9924-14.859s0.3077 1.8-0.044 4c-0.3518 2.2-0.4412 4-0.1988 4 0.6174 0 7.07-20.006 24.029-74.5 8.0446-25.85 15.93-51.124 17.524-56.165 4.5182-14.292 9.1382-20.278 14.594-18.908 4.02 1.0089 4.946 4.0971 4.8199 16.073-0.128 12.153-3.7391 32.284-9.7766 54.5-6.3946 23.531-17.538 62.614-21.004 73.67-4.6551 14.847-8.8587 30.408-8.3515 30.915 0.2269 0.22691 1.9349-1.9494 3.7955-4.8364 5.2615-8.1639 17.588-19.94 24.314-23.227 8.3736-4.0933 19.691-4.7441 25.521-1.4676 2.2497 1.2644 5.2524 3.9757 6.6727 6.0252 7.9996 11.543 7.5944 28.169-2.0318 83.36-1.9127 10.967-3.3429 20.074-3.1782 20.239s3.417-3.8518 7.2273-8.9257c27.797-37.015 62.107-75.349 87.687-97.969 25.184-22.27 39.506-26.117 52.076-13.985 6.667 6.4347 8.0329 10.175 8.472 23.201 0.5961 17.683 0.1756 19.667-18.865 89-6.2822 22.876-8.4076 31.867-7.6998 32.575 0.2405 0.24043 4.4012-3.9531 9.2461-9.319 16.772-18.575 41.026-43.817 55.496-57.756 40.313-38.833 61.508-55.873 81.516-65.536 12.668-6.1182 26.627-11.422 28.455-10.813 0.5994 0.19981-3.4232 3.0298-8.939 6.2889-29.495 17.427-54.748 43.987-123.84 130.25-15.503 19.354-31.064 38.11-34.581 41.679-6.883 6.9854-12.85 10.644-17.302 10.609-4.1092-0.0323-10.504-3.2558-13.484-6.7962-5.034-5.9826-6.0975-10.751-5.5514-24.889 0.6608-17.111 4.6767-37.981 16.22-84.293 9.983-40.052 11.979-48.879 11.222-49.637-0.2629-0.26292-3.1147 1.6309-6.3374 4.2084-20.648 16.515-59.197 61.515-87.681 102.35-19.797 28.384-31.929 43.05-38.07 46.023-5.4662 2.6461-8.9385 2.5775-15.115-0.29898-9.6442-4.491-14.493-13.341-14.493-26.452 0-10.746 1.8002-21.29 13.863-81.197 4.4455-22.078 5.64-30.571 4.4066-31.333-1.5877-0.98129-7.3762 2.6253-12.42 7.7387-6.1979 6.2829-18.667 24.728-26.135 38.66-11.794 22.002-24.617 52.418-36.229 85.935-9.9105 28.605-11.665 30.989-22.812 30.996-5.1095 3e-3 -6.1868-0.35615-8.75-2.9193-2.5866-2.5866-2.923-3.6195-2.923-8.9736 0-11.811 14.964-69.139 30.502-116.85 1.2984-3.9875 2.2212-7.25 2.0506-7.25s-5.6012 10.012-12.068 22.25c-22.487 42.553-38.552 66.6-56.98 85.288-10.899 11.053-16.386 14.476-24.254 15.13-7.2606 0.60326-13.258-2.2271-17.977-8.4838-5.6566-7.4993-6.7841-13.229-6.6904-33.999l0.083-18.316-3.2306 5.3158c-15.167 24.956-32.164 47.014-39.926 51.811-10.57 6.5328-23.477 1.1854-27.513-11.399-2.8089-8.7576-0.8204-42.096 4.0616-68.096 1.0327-5.5 3.2389-17.2 4.9026-26 1.6636-8.8 3.0122-17.125 2.9967-18.5l-0.028-2.5-2.4852 3c-6.7377 8.1331-26.226 43.913-57.191 105-19.332 38.137-22.454 42.5-30.42 42.5-3.0578 0-5.6133-0.73324-7.8419-2.25zm197.6-193.87c-8.3847-1.9667-13.589-7.0975-13.589-13.396 0-4.7285 1.9589-8.3123 7.0652-12.926 7.0065-6.33 13.665-8.7664 25.849-9.4586l10.586-0.60141 0.5-43.168c0.275-23.742 0.7777-43.445 1.1172-43.784 0.3395-0.33889 2.8145 1.1041 5.5 3.2066 2.6855 2.1025 8.637 6.4532 13.226 9.6682s10.786 8.2308 13.772 11.146c16.656 16.262 16.244 43.103-0.8521 55.488-7.1038 5.146-7.3925 3.951-1.7628-7.2967 2.9679-5.9297 4-9.206 4-12.698 0-10.415-6.2511-20.408-15.444-24.689-6.5733-3.0609-8.3623-2.9914-9.6861 0.3763-0.6346 1.6144-1.3763 16.015-1.7961 34.874l-0.7152 32.124-2.7321 5.5841c-4.1145 8.4097-11.5 13.619-22.08 15.575-6.7216 1.2426-7.5596 1.241-12.957-0.025z" fill="#00425a"/>
</svg>
