<?xml version="1.0" encoding="UTF-8" standalone="no"?>
<!-- Created with Inkscape (http://www.inkscape.org/) -->

<svg
   version="1.1"
   id="svg1"
   width="1024"
   height="1024"
   viewBox="0 0 1024 1024"
   sodipodi:docname="LOGO.svg"
   inkscape:version="1.3.2 (091e20e, 2023-11-25, custom)"
   inkscape:export-filename="LOGO.png"
   inkscape:export-xdpi="96"
   inkscape:export-ydpi="96"
   xmlns:inkscape="http://www.inkscape.org/namespaces/inkscape"
   xmlns:sodipodi="http://sodipodi.sourceforge.net/DTD/sodipodi-0.dtd"
   xmlns:xlink="http://www.w3.org/1999/xlink"
   xmlns="http://www.w3.org/2000/svg"
   xmlns:svg="http://www.w3.org/2000/svg">
  <defs
     id="defs1">
    <color-profile
       name="Agfa-:-Swop-Standard"
       xlink:href="../../../WINDOWS/system32/spool/drivers/color/RSWOP.icm"
       id="color-profile1" />
  </defs>
  <sodipodi:namedview
     id="namedview1"
     pagecolor="#ffffff"
     bordercolor="#000000"
     borderopacity="0"
     inkscape:showpageshadow="2"
     inkscape:pageopacity="0.0"
     inkscape:pagecheckerboard="false"
     inkscape:deskcolor="#d1d1d1"
     labelstyle="default"
     inkscape:clip-to-page="false"
     inkscape:zoom="0.80175781"
     inkscape:cx="511.37637"
     inkscape:cy="512"
     inkscape:window-width="1920"
     inkscape:window-height="1017"
     inkscape:window-x="-8"
     inkscape:window-y="-8"
     inkscape:window-maximized="1"
     inkscape:current-layer="layer2" />
  <g
     inkscape:groupmode="layer"
     id="layer2"
     inkscape:label="Bottom Layer">
    <ellipse
       style="fill:#e5ffff;fill-opacity:1;stroke:#000000;stroke-width:0.393442;stroke-opacity:0"
       id="path2"
       cx="512.6236"
       cy="513.24725"
       rx="511.35727"
       ry="510.7337" />
  </g>
  <g
     inkscape:groupmode="layer"
     id="layer1"
     inkscape:label="Top Layer">
    <g
       inkscape:groupmode="layer"
       inkscape:label="Image"
       id="g1">
      <path
         style="fill:#00425a;fill-opacity:1"
         d="m 288.19325,638.9863 c -6.80087,-4.62863 -7.45599,-6.43813 -7.80903,-21.56931 -0.3773,-16.17132 1.91277,-32.63609 9.90758,-71.23175 5.58919,-26.98232 16.32761,-82.74497 17.36994,-90.19894 0.40799,-2.91758 0.28199,-4.75 -0.32659,-4.75 -1.75453,0 -14.40201,14.81391 -22.47154,26.32074 -8.95362,12.76751 -20.32232,31.50473 -30.1426,49.67926 -8.27538,15.31534 -33.33549,66.08597 -37.01961,75 -3.95633,9.57268 -10.31529,20.75863 -12.78365,22.48754 -4.79374,3.35767 -15.54994,0.53153 -18.50275,-4.86149 -1.36433,-2.49182 -1.69325,-5.56066 -1.62121,-15.12605 0.13592,-18.04947 4.70907,-40.54131 18.40089,-90.5 6.3641,-23.22133 7.87761,-30.12455 6.24853,-28.5 -0.55153,0.55 -4.51081,5.275 -8.79839,10.5 -33.27484,40.54989 -73.22898,79.6289 -102.441405,100.19757 -7.44993,5.24555 -32.02602,20.73028 -36.90898,23.25536 -1.80229,0.932 -3.46995,1.50148 -3.70592,1.26551 -0.23597,-0.23597 3.74335,-3.94675 8.84293,-8.24619 12.5283,-10.56256 68.617155,-66.83203 82.705915,-82.97225 14.1443,-16.20384 34.54619,-41.63479 51.7449,-64.5 16.10579,-21.4122 20.00124,-25.4 24.81178,-25.4 6.90579,0 12.66215,7.18989 14.35115,17.92509 1.53663,9.76673 -2.17844,32.67944 -8.73562,53.8771 -1.1743,3.79621 -2.01608,7.01717 -1.87062,7.1577 0.14546,0.14053 4.5248,-6.79046 9.73187,-15.40219 17.90064,-29.60505 43.99446,-66.89374 52.72424,-75.3442 5.86819,-5.68043 14.53236,-9.8135 20.57205,-9.8135 8.21357,0 12.81859,3.36091 17.43874,12.72744 l 3.79757,7.6989 -0.11674,19.53683 c -0.13028,21.80256 -1.82745,37.53841 -6.39638,59.3061 -1.64282,7.8269 -3.28282,15.3136 -3.64444,16.6371 -1.08309,3.96404 0.93456,1.76663 6.52069,-7.10167 36.5805,-58.07366 40.2136,-63.33118 48.1817,-69.72541 7.7561,-6.22407 14.4684,-7.4615 21.6407,-3.9895 16.2105,7.84741 17.6013,27.68193 6.3135,90.03867 -4.0827,22.55398 -6.6557,43.56333 -5.4753,44.70774 1.125,1.09063 12.4133,-11.73736 21.0611,-23.9338 12.8228,-18.08457 24.9341,-39.65937 33.9077,-60.4024 9.2048,-21.27769 12.6864,-28.3547 14.2432,-28.9521 4.6465,-1.78302 15.2923,5.10196 18.3715,11.88136 2.9749,6.54999 3.2971,4.37352 -7.0431,47.57074 -6.7526,28.21 -10.6757,54 -8.2142,54 3.9633,0 19.6173,-16.32243 37.3505,-38.94536 22.2454,-28.37925 46.5585,-66.25408 60.4672,-94.19517 4.0683,-8.17271 7.6648,-14.85947 7.9924,-14.85947 0.3276,0 0.3077,1.8 -0.044,4 -0.3518,2.2 -0.4412,4 -0.1988,4 0.6174,0 7.07,-20.00594 24.0289,-74.5 8.0446,-25.85 15.9304,-51.12413 17.5239,-56.16474 4.5182,-14.29216 9.1382,-20.27787 14.5943,-18.90848 4.02,1.00894 4.946,4.09706 4.8199,16.07322 -0.128,12.15344 -3.7391,32.28363 -9.7766,54.5 -6.3946,23.53055 -17.5378,62.61437 -21.0041,73.66993 -4.6551,14.84738 -8.8587,30.40814 -8.3515,30.91538 0.2269,0.22691 1.9349,-1.94945 3.7955,-4.83637 5.2615,-8.16392 17.588,-19.93957 24.3138,-23.22737 8.3736,-4.09326 19.6912,-4.7441 25.5209,-1.46762 2.2497,1.26439 5.2524,3.97572 6.6727,6.0252 7.9996,11.54349 7.5944,28.16891 -2.0318,83.36022 -1.9127,10.96665 -3.3429,20.07414 -3.1782,20.23886 0.1647,0.16472 3.417,-3.85185 7.2273,-8.92572 27.7968,-37.01487 62.1073,-75.34861 87.687,-97.96908 25.1838,-22.27045 39.5058,-26.11655 52.0755,-13.9846 6.667,6.43472 8.0329,10.17529 8.472,23.20117 0.5961,17.68284 0.1756,19.66666 -18.8651,89 -6.2822,22.87594 -8.4076,31.86736 -7.6998,32.57516 0.2405,0.24043 4.4012,-3.95312 9.2461,-9.319 16.7716,-18.57511 41.026,-43.81717 55.4964,-57.75616 40.3134,-38.83308 61.5079,-55.87268 81.5157,-65.53553 12.6682,-6.11816 26.6267,-11.42224 28.4553,-10.81272 0.5994,0.19981 -3.4232,3.02984 -8.939,6.28894 -29.495,17.42728 -54.7484,43.987 -123.8432,130.24915 -15.5026,19.35441 -31.0639,38.11001 -34.5807,41.67911 -6.883,6.98536 -12.8501,10.64414 -17.3025,10.60909 -4.1092,-0.0323 -10.5044,-3.25583 -13.4835,-6.79625 -5.034,-5.9826 -6.0975,-10.75069 -5.5514,-24.88915 0.6608,-17.11113 4.6767,-37.98075 16.2201,-84.29264 9.983,-40.0515 11.9788,-48.87946 11.2216,-49.63665 -0.2629,-0.26292 -3.1147,1.63088 -6.3374,4.20845 -20.6482,16.51514 -59.1974,61.51502 -87.6808,102.35281 -19.7974,28.38432 -31.9289,43.05 -38.0704,46.02306 -5.4662,2.64614 -8.9385,2.57746 -15.1154,-0.29898 -9.6442,-4.49105 -14.4927,-13.34059 -14.4927,-26.45185 0,-10.74623 1.8002,-21.29038 13.8628,-81.19684 4.4455,-22.07801 5.64,-30.57121 4.4066,-31.33345 -1.5877,-0.98129 -7.3762,2.62526 -12.4205,7.73866 -6.1979,6.28292 -18.6674,24.72819 -26.1352,38.66016 -11.7936,22.00219 -24.6167,52.41842 -36.2289,85.93463 -9.9105,28.60453 -11.6654,30.98911 -22.8118,30.99626 -5.1095,0.003 -6.1868,-0.35615 -8.75,-2.91934 -2.5866,-2.58661 -2.923,-3.61951 -2.923,-8.97357 0,-11.81117 14.9641,-69.13947 30.5017,-116.85335 1.2984,-3.9875 2.2212,-7.25 2.0506,-7.25 -0.1706,0 -5.6012,10.0125 -12.0681,22.25 -22.4869,42.5534 -38.5522,66.60007 -56.9796,85.28755 -10.8994,11.05324 -16.3865,14.47611 -24.2542,15.12982 -7.2606,0.60326 -13.2582,-2.22712 -17.9774,-8.48381 -5.6566,-7.49932 -6.7841,-13.22941 -6.6904,-33.99941 l 0.083,-18.31584 -3.2306,5.31584 c -15.1667,24.95623 -32.1645,47.01362 -39.9261,51.81054 -10.5703,6.53279 -23.4771,1.18535 -27.5133,-11.39912 -2.8089,-8.7576 -0.8204,-42.09576 4.0616,-68.09557 1.0327,-5.5 3.2389,-17.2 4.9026,-26 1.6636,-8.8 3.0122,-17.125 2.9967,-18.5 l -0.028,-2.5 -2.4852,3 c -6.7377,8.13314 -26.22579,43.91256 -57.19065,104.99987 -19.33167,38.13742 -22.45438,42.50013 -30.42046,42.50013 -3.05775,0 -5.61331,-0.73324 -7.84189,-2.25 z m 197.5995,-193.86821 c -8.3847,-1.96674 -13.5893,-7.09746 -13.5893,-13.39627 0,-4.72848 1.9589,-8.31227 7.0652,-12.92551 7.0065,-6.32997 13.6649,-8.76637 25.8492,-9.4586 l 10.5856,-0.60141 0.5,-43.16779 c 0.275,-23.74228 0.7777,-43.44505 1.1172,-43.78393 0.3395,-0.33889 2.8145,1.1041 5.5,3.20662 2.6855,2.10253 8.637,6.45324 13.2256,9.66825 4.5886,3.21501 10.786,8.23076 13.7721,11.14611 16.6562,16.26164 16.244,43.10325 -0.8521,55.48761 -7.1038,5.14596 -7.3925,3.95103 -1.7628,-7.29671 2.9679,-5.92968 4,-9.20603 4,-12.69782 0,-10.4151 -6.2511,-20.40772 -15.4444,-24.68864 -6.5733,-3.06086 -8.3623,-2.99136 -9.6861,0.3763 -0.6346,1.61441 -1.3763,16.01521 -1.7961,34.87377 l -0.7152,32.12377 -2.7321,5.58414 c -4.1145,8.40968 -11.4998,13.61931 -22.08,15.57515 -6.7216,1.24257 -7.5596,1.24095 -12.9568,-0.025 z"
         id="path1" />
    </g>
  </g>
</svg>
